<svg id="Layer_1" enable-background="new 0 0 512 512" height="512" viewBox="0 0 512 512" width="512" xmlns="http://www.w3.org/2000/svg"><g><g><g><path d="m400 128c-4.418 0-8 3.582-8 8v16h16v-16c0-4.418-3.582-8-8-8z" fill="#fad741"/></g><g><path d="m408 168h-16v16c0 4.418 3.582 8 8 8 4.418 0 8-3.582 8-8z" fill="#fad741"/></g><g><path d="m368 160c0 4.418 3.582 8 8 8h16v-16h-16c-4.418 0-8 3.582-8 8z" fill="#fad741"/></g><g><path d="m408 152v16h16c4.418 0 8-3.582 8-8 0-4.418-3.582-8-8-8z" fill="#fad741"/></g></g><g><g><path d="m256 56c-4.418 0-8 3.582-8 8v16h16v-16c0-4.418-3.582-8-8-8z" fill="#fad741"/></g><g><path d="m264 96h-16v16c0 4.418 3.582 8 8 8 4.418 0 8-3.582 8-8z" fill="#fad741"/></g><g><path d="m224 88c0 4.418 3.582 8 8 8h16v-16h-16c-4.418 0-8 3.582-8 8z" fill="#fad741"/></g><g><path d="m264 80v16h16c4.418 0 8-3.582 8-8 0-4.418-3.582-8-8-8z" fill="#fad741"/></g></g><g><path d="m432 456h-352c-35.346 0-64-28.654-64-64v-112c0-8.837 7.163-16 16-16h448c8.837 0 16 7.163 16 16v112c0 35.346-28.654 64-64 64z" fill="#ff7869"/></g><g><path d="m327.919 261.174c-1.402-24.461-21.476-44.156-45.958-45.135-8.116-.325-15.8 1.377-22.603 4.628-2.119 1.013-4.597 1.013-6.716 0-6.803-3.251-14.487-4.952-22.603-4.628-24.482.98-44.556 20.674-45.958 45.135-.84 14.66 4.907 27.989 14.552 37.315 6.101 5.9 9.367 14.145 9.367 22.632v44.212c0 13.255 10.745 24 24 24 4.418 0 8-3.582 8-8v-52.881c0-8.615 6.621-16.028 15.227-16.434 9.188-.432 16.773 6.889 16.773 15.982v53.333c0 4.418 3.582 8 8 8 13.255 0 24-10.745 24-24v-44.212c0-8.487 3.266-16.732 9.367-22.632 9.645-9.326 15.392-22.654 14.552-37.315z" fill="#d7e6f0"/></g><g><g><path d="m327.919 261.174c-1.402-24.461-21.476-44.156-45.958-45.135-3.403-.136-6.724.104-9.942.645 21.658 3.685 38.615 22.082 39.9 44.49.84 14.66-4.907 27.989-14.552 37.315-6.101 5.9-9.367 14.145-9.367 22.632v44.212c0 9.55-5.578 17.795-13.654 21.66 1.448 1.446 3.446 2.34 5.654 2.34 13.255 0 24-10.745 24-24v-44.212c0-8.487 3.266-16.732 9.367-22.632 9.645-9.326 15.392-22.654 14.552-37.315z" fill="#a5c3dc"/></g></g><g><circle cx="216" cy="248" fill="#fff" r="16"/></g><g><path d="m471.919 261.174c-1.402-24.461-21.476-44.156-45.958-45.135-8.116-.325-15.8 1.377-22.603 4.628-2.119 1.013-4.597 1.013-6.716 0-6.803-3.251-14.487-4.952-22.603-4.628-24.482.98-44.556 20.674-45.958 45.135-.84 14.66 4.907 27.989 14.552 37.315 6.101 5.9 9.367 14.145 9.367 22.632v44.212c0 13.255 10.745 24 24 24 4.418 0 8-3.582 8-8v-52.881c0-8.615 6.621-16.028 15.227-16.434 9.188-.432 16.773 6.889 16.773 15.982v53.333c0 4.418 3.582 8 8 8 13.255 0 24-10.745 24-24v-44.212c0-8.487 3.266-16.732 9.367-22.632 9.645-9.326 15.392-22.654 14.552-37.315z" fill="#d7e6f0"/></g><g><g><path d="m471.919 261.174c-1.402-24.461-21.476-44.156-45.958-45.135-3.403-.136-6.724.104-9.942.645 21.658 3.685 38.615 22.082 39.9 44.49.84 14.66-4.907 27.989-14.552 37.315-6.101 5.9-9.367 14.145-9.367 22.632v44.212c0 9.55-5.578 17.795-13.654 21.66 1.448 1.446 3.446 2.34 5.654 2.34 13.255 0 24-10.745 24-24v-44.212c0-8.487 3.266-16.732 9.367-22.632 9.645-9.326 15.392-22.654 14.552-37.315z" fill="#a5c3dc"/></g></g><g><circle cx="360" cy="248" fill="#fff" r="16"/></g><g><path d="m183.919 261.174c-1.402-24.461-21.476-44.156-45.958-45.135-8.116-.325-15.8 1.377-22.603 4.628-2.119 1.013-4.597 1.013-6.716 0-6.803-3.251-14.487-4.952-22.603-4.628-24.482.98-44.556 20.674-45.958 45.135-.84 14.66 4.907 27.989 14.552 37.315 6.101 5.9 9.367 14.145 9.367 22.632v44.212c0 13.255 10.745 24 24 24 4.418 0 8-3.582 8-8v-52.881c0-8.615 6.621-16.028 15.227-16.434 9.188-.432 16.773 6.889 16.773 15.982v53.333c0 4.418 3.582 8 8 8 13.255 0 24-10.745 24-24v-44.212c0-8.487 3.266-16.732 9.367-22.632 9.645-9.326 15.392-22.654 14.552-37.315z" fill="#d7e6f0"/></g><g><g><path d="m183.919 261.174c-1.402-24.461-21.476-44.156-45.958-45.135-3.403-.136-6.724.104-9.942.645 21.658 3.685 38.615 22.082 39.9 44.49.84 14.66-4.907 27.989-14.552 37.315-6.101 5.9-9.367 14.145-9.367 22.632v44.212c0 9.55-5.578 17.795-13.654 21.66 1.448 1.446 3.446 2.34 5.654 2.34 13.255 0 24-10.745 24-24v-44.212c0-8.487 3.266-16.732 9.367-22.632 9.645-9.326 15.392-22.654 14.552-37.315z" fill="#a5c3dc"/></g></g><g><circle cx="72" cy="248" fill="#fff" r="16"/></g><g><g><path d="m112 128c-4.418 0-8 3.582-8 8v16h16v-16c0-4.418-3.582-8-8-8z" fill="#fad741"/></g><g><path d="m120 168h-16v16c0 4.418 3.582 8 8 8 4.418 0 8-3.582 8-8z" fill="#fad741"/></g><g><path d="m80 160c0 4.418 3.582 8 8 8h16v-16h-16c-4.418 0-8 3.582-8 8z" fill="#fad741"/></g><g><path d="m120 152v16h16c4.418 0 8-3.582 8-8 0-4.418-3.582-8-8-8z" fill="#fad741"/></g></g><g><path d="m474.667 269.333h-437.334c-2.946 0-5.333-2.388-5.333-5.333 0-2.946 2.388-5.333 5.333-5.333h437.333c2.945 0 5.333 2.388 5.333 5.333.001 2.946-2.387 5.333-5.332 5.333z" fill="#a5c3dc"/></g><g><g><path d="m136 288h-48c-4.418 0-8-3.582-8-8v-32c0-4.418 3.582-8 8-8h48c4.418 0 8 3.582 8 8v32c0 4.418-3.582 8-8 8z" fill="#555a6e"/></g><g><path d="m80 258.667h64v10.667h-64z" fill="#463c4b"/></g><g><path d="m98.667 277.333c-4.418 0-8-3.582-8-8v-10.667c0-4.418 3.582-8 8-8 4.418 0 8 3.582 8 8v10.667c0 4.419-3.582 8-8 8z" fill="#a5c3dc"/></g><g><path d="m125.333 277.333c-4.418 0-8-3.582-8-8v-10.667c0-4.418 3.582-8 8-8 4.418 0 8 3.582 8 8v10.667c0 4.419-3.581 8-8 8z" fill="#a5c3dc"/></g></g><g><g><path d="m280 288h-48c-4.418 0-8-3.582-8-8v-32c0-4.418 3.582-8 8-8h48c4.418 0 8 3.582 8 8v32c0 4.418-3.582 8-8 8z" fill="#555a6e"/></g><g><path d="m224 258.667h64v10.667h-64z" fill="#463c4b"/></g><g><path d="m242.667 277.333c-4.418 0-8-3.582-8-8v-10.667c0-4.418 3.582-8 8-8 4.418 0 8 3.582 8 8v10.667c0 4.419-3.582 8-8 8z" fill="#a5c3dc"/></g><g><path d="m269.333 277.333c-4.418 0-8-3.582-8-8v-10.667c0-4.418 3.582-8 8-8 4.418 0 8 3.582 8 8v10.667c0 4.419-3.581 8-8 8z" fill="#a5c3dc"/></g></g><g><g><path d="m424 288h-48c-4.418 0-8-3.582-8-8v-32c0-4.418 3.582-8 8-8h48c4.418 0 8 3.582 8 8v32c0 4.418-3.582 8-8 8z" fill="#555a6e"/></g><g><path d="m368 258.667h64v10.667h-64z" fill="#463c4b"/></g><g><path d="m386.667 277.333c-4.418 0-8-3.582-8-8v-10.667c0-4.418 3.582-8 8-8 4.418 0 8 3.582 8 8v10.667c0 4.419-3.582 8-8 8z" fill="#a5c3dc"/></g><g><path d="m413.333 277.333c-4.418 0-8-3.582-8-8v-10.667c0-4.418 3.582-8 8-8 4.418 0 8 3.582 8 8v10.667c0 4.419-3.581 8-8 8z" fill="#a5c3dc"/></g></g></g></svg>