<svg id="Capa_1" enable-background="new 0 0 512 512" height="512" viewBox="0 0 512 512" width="512" xmlns="http://www.w3.org/2000/svg"><g><path d="m202.677 333.92h92v117.5h-92z" fill="#bcdbfd"/><path d="m248.677 333.92h46v117.5h-46z" fill="#9bbad9"/><path d="m321.507 195.35h81.396v30h-81.396z" fill="#bcdbfd"/><path d="m336.507 287h-30v-242.566c0-7.959-6.475-14.434-14.434-14.434-3.864 0-7.629 1.586-10.329 4.352l-46.906 48.046-21.467-20.958 46.907-48.047c8.312-8.511 19.901-13.393 31.795-13.393 24.501 0 44.434 19.933 44.434 44.434z" fill="#9bbad9"/><path d="m361.337 512h-225.33l48.29-90.58h128.75z" fill="#e0f4fe"/><path d="m234.717 158.18-24.7 24.7-47.71-47.71-49.16-49.17 24.69-24.69c26.71-26.7 70.17-26.7 96.87 0 26.71 26.71 26.71 70.17.01 96.87z" fill="#ffe375"/><circle cx="417.281" cy="210.35" fill="#9bbad9" r="38.726"/><path d="m481.537 417.87c-6.84 10.69-17.42 18.08-29.81 20.81-3.43.76-6.89 1.13-10.31 1.13-8.96 0-17.75-2.55-25.49-7.49l-107.06-68.4h-147.57l-124.4-124.57c-8.97-8.97-13.9-20.9-13.89-33.59s4.96-24.62 13.93-33.58 20.89-13.89 33.57-13.89h.03c12.69.01 24.61 4.96 33.58 13.93l96.57 96.7h135.94l130.45 83.35c22.07 14.1 28.56 43.53 14.46 65.6z" fill="#48568c"/><path d="m313.047 421.42 48.29 90.58h-112.66v-90.58z" fill="#bcdbfd"/><path d="m481.537 417.87c-6.84 10.69-17.42 18.08-29.81 20.81-3.43.76-6.89 1.13-10.31 1.13-8.96 0-17.75-2.55-25.49-7.49l-107.06-68.4h-60.19v-95h87.95l130.45 83.35c22.07 14.1 28.56 43.53 14.46 65.6z" fill="#2c3b73"/><path d="m113.677 482h270v30h-270z" fill="#bcdbfd"/><path d="m248.677 482h135v30h-135z" fill="#9bbad9"/><path d="m234.717 158.18-24.7 24.7-47.71-47.71 72.4-73.86c26.71 26.71 26.71 70.17.01 96.87z" fill="#ffc300"/></g></svg>