<svg height="512" viewBox="0 0 512 512" width="512" xmlns="http://www.w3.org/2000/svg" xmlns:xlink="http://www.w3.org/1999/xlink"><linearGradient id="linear-gradient" gradientUnits="userSpaceOnUse" x1="65.165" x2="515.676" y1="516.478" y2="65.967"><stop offset="0" stop-color="#35e0d1"/><stop offset="1" stop-color="#ee83ef"/></linearGradient><path d="m471.994 95.992h-130.956l18-16h112.956a24.011 24.011 0 0 0 23.676-27.972c-1.859-11.418-12.406-20.028-24.531-20.028h-114.977a39.967 39.967 0 0 0 -26.578 10.1l-60.634 53.9h-68.956a40.047 40.047 0 0 0 -40 40v48a40.185 40.185 0 0 0 16 32l17.862 13.4c.027.2.028.4.056.593l4.926 34.492c1.261 8.848 8.953 15.52 18.609 15.52a18.1 18.1 0 0 0 16.52-10.735l5.433-12.234a1.8 1.8 0 0 1 3.223.148l3.484 10.457a18.073 18.073 0 0 0 35.039-3.152l4.93-34.5c.028-.2.029-.392.056-.588l17.862-13.4a40.185 40.185 0 0 0 16-32v-40h152a24 24 0 1 0 0-48zm-131.781-41.937a23.986 23.986 0 0 1 15.949-6.063h114.977c4.3 0 8.137 2.9 8.742 6.6a8.013 8.013 0 0 1 -7.887 9.4h-116a8 8 0 0 0 -5.316 2.02l-33.727 29.98h-23.914zm-68.219 124.813a21.74 21.74 0 0 0 -10.785-2.875h-1.953a21.918 21.918 0 0 0 -9.762 2.3 21.327 21.327 0 0 1 -19.012-.008 21.929 21.929 0 0 0 -9.75-2.3h-1.953a21.74 21.74 0 0 0 -10.785 2.875v-34.868h64zm-1.754 48.847-4.933 34.5c-.266 1.891-3.415 2.172-4.02.36l-3.487-10.461a17.733 17.733 0 0 0 -33.024-1.594l-5.437 12.242c-.332.746-1.075 1.231-2.61 1.231a2.083 2.083 0 0 1 -2.054-1.782l-4.93-34.492a58.083 58.083 0 0 1 1.156-22.383l2.234-8.941a5.809 5.809 0 0 1 5.641-4.4h1.953a5.842 5.842 0 0 1 2.6.609 37.4 37.4 0 0 0 33.316.008 5.831 5.831 0 0 1 2.61-.617h1.953a5.809 5.809 0 0 1 5.641 4.4l2.234 8.937a58.091 58.091 0 0 1 1.157 22.383zm33.754-43.722a24.12 24.12 0 0 1 -9.6 19.2l-6.4 4.8v-64h16zm168-56h-264a16.016 16.016 0 0 0 -16 16v64l-6.4-4.8a24.12 24.12 0 0 1 -9.6-19.2v-48a24.027 24.027 0 0 1 24-24h272a8 8 0 0 1 0 16zm-448 344h432a8 8 0 0 0 8-8v-20.238a159.862 159.862 0 0 0 -16.851-71.355 7.88 7.88 0 0 0 -1.869-2.329 73.761 73.761 0 0 0 -1.838-24.62l-2.235-8.938a21.773 21.773 0 0 0 -21.16-16.523h-1.957a21.938 21.938 0 0 0 -9.754 2.3 21.348 21.348 0 0 1 -19.019 0 21.929 21.929 0 0 0 -9.746-2.3h-1.957a21.721 21.721 0 0 0 -18.784 10.838 21.721 21.721 0 0 0 -18.783-10.838h-1.957a21.938 21.938 0 0 0 -9.754 2.3 21.348 21.348 0 0 1 -19.019 0 21.93 21.93 0 0 0 -9.747-2.3h-1.957a21.774 21.774 0 0 0 -21.16 16.519l-2.234 8.942a73.729 73.729 0 0 0 -1.907 23.893 22.934 22.934 0 0 0 -9.179 5.638 23.651 23.651 0 0 0 -7.133 17.168 15.858 15.858 0 0 1 -15.84 15.84 15.554 15.554 0 0 1 -11.117-4.512 15.915 15.915 0 0 1 -4.723-10.93v-1.027a24.039 24.039 0 0 0 -16.625-22.243 73.718 73.718 0 0 0 -1.914-23.827l-2.234-8.938a21.773 21.773 0 0 0 -21.16-16.523h-1.957a21.932 21.932 0 0 0 -9.754 2.3 21.35 21.35 0 0 1 -19.02 0 21.929 21.929 0 0 0 -9.746-2.3h-1.957a21.722 21.722 0 0 0 -18.784 10.838 21.721 21.721 0 0 0 -18.783-10.838h-1.957a21.931 21.931 0 0 0 -9.753 2.3 21.35 21.35 0 0 1 -19.02 0 21.929 21.929 0 0 0 -9.746-2.3h-1.957a21.773 21.773 0 0 0 -21.16 16.519l-2.235 8.942a73.713 73.713 0 0 0 -1.838 24.62 7.9 7.9 0 0 0 -1.869 2.329 159.862 159.862 0 0 0 -16.851 71.352v20.238a8 8 0 0 0 8 8.003zm345.742-122.656 2.235-8.946a5.8 5.8 0 0 1 5.637-4.4h1.957a5.817 5.817 0 0 1 2.6.613 37.431 37.431 0 0 0 33.317 0 5.823 5.823 0 0 1 2.605-.617h1.957a5.8 5.8 0 0 1 5.637 4.4l2.234 8.942a58 58 0 0 1 1.157 22.382l-4.926 34.489c-.278 1.906-3.414 2.2-4.024.363l-3.488-10.457a17.727 17.727 0 0 0 -33.016-1.594l-5.445 12.242c-.332.747-1.074 1.231-2.609 1.231a2.09 2.09 0 0 1 -2.055-1.777l-4.926-34.5a58.01 58.01 0 0 1 1.153-22.371zm-80 0 2.235-8.946a5.8 5.8 0 0 1 5.636-4.4h1.957a5.818 5.818 0 0 1 2.6.613 37.431 37.431 0 0 0 33.317 0 5.823 5.823 0 0 1 2.605-.617h1.957a5.8 5.8 0 0 1 5.637 4.4l2.234 8.942a57.984 57.984 0 0 1 1.156 22.382l-4.925 34.489c-.278 1.906-3.414 2.2-4.024.363l-3.488-10.457a17.727 17.727 0 0 0 -33.016-1.594l-5.445 12.242c-.332.747-1.074 1.231-2.609 1.231a2.09 2.09 0 0 1 -2.055-1.777l-4.926-34.5a57.991 57.991 0 0 1 1.154-22.371zm-157.66 0 2.234-8.946a5.8 5.8 0 0 1 5.637-4.4h1.953a5.821 5.821 0 0 1 2.6.613 37.429 37.429 0 0 0 33.316 0 5.827 5.827 0 0 1 2.606-.617h1.957a5.8 5.8 0 0 1 5.636 4.4l2.235 8.942a58 58 0 0 1 1.156 22.382l-4.926 34.489c-.281 1.906-3.43 2.187-4.023.363l-3.489-10.457a17.726 17.726 0 0 0 -33.015-1.594l-5.446 12.242c-.332.747-1.074 1.231-2.6 1.231a2.093 2.093 0 0 1 -2.059-1.777l-4.925-34.5a57.971 57.971 0 0 1 1.153-22.371zm-80 0 2.234-8.946a5.8 5.8 0 0 1 5.637-4.4h1.953a5.814 5.814 0 0 1 2.6.613 37.431 37.431 0 0 0 33.317 0 5.826 5.826 0 0 1 2.605-.617h1.957a5.8 5.8 0 0 1 5.637 4.4l2.235 8.942a58.023 58.023 0 0 1 1.156 22.382l-4.926 34.489c-.277 1.906-3.422 2.187-4.023.363l-3.488-10.449a17.726 17.726 0 0 0 -33.015-1.594l-5.446 12.242c-.332.747-1.074 1.231-2.6 1.231a2.092 2.092 0 0 1 -2.059-1.777l-4.926-34.5a57.991 57.991 0 0 1 1.152-22.379zm-20.082 94.418a144.036 144.036 0 0 1 6.847-43.455l1.168 8.183c1.266 8.844 8.961 15.512 18.606 15.512a18.086 18.086 0 0 0 16.515-10.736l5.442-12.235a1.8 1.8 0 0 1 3.219.152l3.488 10.454a18.022 18.022 0 0 0 33.886.926 18.526 18.526 0 0 0 17.45 11.437 18.087 18.087 0 0 0 16.516-10.734l5.441-12.235a1.8 1.8 0 0 1 3.219.152l3.488 10.454a18.073 18.073 0 0 0 35.039-3.157l3.207-22.456a7.7 7.7 0 0 1 2.789 5.656v1.078a31.841 31.841 0 0 0 63.676-.758 7.8 7.8 0 0 1 2.445-5.695c.017-.018.042-.022.058-.039l3.173 22.222c1.265 8.844 8.957 15.512 18.6 15.512a18.087 18.087 0 0 0 16.516-10.734l5.441-12.235a1.8 1.8 0 0 1 3.219.152l3.488 10.454a18.022 18.022 0 0 0 33.886.926 18.523 18.523 0 0 0 17.45 11.437 18.086 18.086 0 0 0 16.516-10.734l5.442-12.235a1.8 1.8 0 0 1 3.218.152l3.489 10.454a18.073 18.073 0 0 0 35.039-3.157l1.168-8.177a144.044 144.044 0 0 1 6.847 43.459v12.238h-416zm200-99.762h16v16h-16zm0 32h16v16h-16zm16-48h-16v-32h16zm-64-248h-16v-16h16zm32 0h-16v-16h16zm48 0h-32v-16h32zm104 96h-16v-16h16zm64 0h-48v-16h48zm-288 24h-16v-16h16zm0-32h-16v-32h16z" fill="url(#linear-gradient)"/></svg>