<?xml version="1.0" encoding="iso-8859-1"?>
<!-- Generator: Adobe Illustrator 19.0.0, SVG Export Plug-In . SVG Version: 6.00 Build 0)  -->
<svg version="1.1" id="Capa_1" xmlns="http://www.w3.org/2000/svg" xmlns:xlink="http://www.w3.org/1999/xlink" x="0px" y="0px"
	 viewBox="0 0 480.034 480.034" style="enable-background:new 0 0 480.034 480.034;" xml:space="preserve">
<g>
	<g>
		<path d="M79.883,38.653c-0.568-3.357-3.197-5.986-6.554-6.554c-13.036-2.178-23.25-12.395-25.424-25.432
			c-0.737-4.356-4.866-7.291-9.222-6.554c-3.357,0.568-5.986,3.197-6.554,6.554C29.955,19.704,19.741,29.922,6.705,32.099
			c-4.356,0.737-7.291,4.866-6.554,9.222c0.568,3.357,3.197,5.986,6.554,6.554c13.036,2.178,23.25,12.395,25.424,25.432
			c0.737,4.356,4.866,7.291,9.222,6.554c3.357-0.568,5.986-3.197,6.554-6.554c2.174-13.037,12.388-23.254,25.424-25.432
			C77.685,47.139,80.62,43.01,79.883,38.653z M40.017,51.411c-3.119-4.439-6.985-8.305-11.424-11.424
			c4.439-3.119,8.305-6.985,11.424-11.424c3.119,4.439,6.985,8.305,11.424,11.424C47.001,43.107,43.136,46.972,40.017,51.411z"/>
	</g>
</g>
<g>
	<g>
		<path d="M317.825,47.979c-15.474-0.001-30.786,3.142-45.008,9.24c-20.955,8.927-44.645,8.927-65.6,0
			c-57.968-24.853-125.107,1.992-149.96,59.96c-6.097,14.222-9.241,29.534-9.24,45.008c-0.016,47.113,13.225,93.28,38.208,133.224
			l2.288,3.672l34.544,152c4.543,20.018,24.454,32.563,44.472,28.02c14.726-3.342,25.966-15.26,28.44-30.156l24-143.952
			c1.857-11.077,12.342-18.55,23.419-16.693c8.555,1.435,15.259,8.138,16.693,16.693l24,143.944
			c3.378,20.252,22.533,33.931,42.785,30.554c14.883-2.482,26.789-13.713,30.135-28.426l34.536-152l2.288-3.672
			c24.975-39.941,38.21-86.102,38.192-133.208C432.021,99.116,380.895,47.984,317.825,47.979z M380.241,286.939l-3.008,4.8
			c-0.472,0.761-0.817,1.593-1.024,2.464l-34.824,153.296c-2.593,11.404-13.94,18.547-25.344,15.954
			c-8.38-1.905-14.777-8.686-16.192-17.162l-24-143.944c-3.304-19.789-22.025-33.154-41.815-29.849
			c-15.303,2.555-27.294,14.546-29.849,29.849l-24,143.952c-1.911,11.533-12.811,19.334-24.344,17.422
			c-8.49-1.407-15.283-7.813-17.184-16.206l-34.832-153.304c-0.207-0.871-0.552-1.703-1.024-2.464l-3.008-4.8
			c-23.391-37.408-35.788-80.641-35.776-124.76c0.062-54.209,43.991-98.138,98.2-98.2c13.302-0.014,26.466,2.686,38.688,7.936
			c24.985,10.66,53.239,10.66,78.224,0c49.855-21.362,107.588,1.735,128.95,51.59c5.237,12.221,7.937,25.378,7.938,38.674
			C416.027,206.304,403.63,249.533,380.241,286.939z"/>
	</g>
</g>
<g>
	<g>
		<path d="M136.017,103.987l-1.6-7.84c-16,3.208-46.4,20.68-46.4,63.84h16c0-40.568,32.24-47.872,33.6-48.168L136.017,103.987z"/>
	</g>
</g>
<g>
	<g>
		<rect x="152.017" y="95.987" width="16" height="16"/>
	</g>
</g>
<g>
	<g>
		<path d="M479.883,374.653c-0.568-3.357-3.197-5.986-6.554-6.554c-13.036-2.178-23.25-12.395-25.424-25.432
			c-0.737-4.356-4.866-7.291-9.222-6.554c-3.357,0.568-5.986,3.197-6.554,6.554c-2.174,13.037-12.388,23.254-25.424,25.432
			c-4.356,0.737-7.291,4.866-6.554,9.222c0.568,3.357,3.197,5.986,6.554,6.554c13.036,2.178,23.25,12.395,25.424,25.432
			c0.737,4.356,4.866,7.291,9.222,6.554c3.357-0.568,5.986-3.197,6.554-6.554c2.174-13.037,12.388-23.254,25.424-25.432
			C477.685,383.139,480.62,379.01,479.883,374.653z M440.017,387.411c-3.119-4.439-6.985-8.305-11.424-11.424
			c4.439-3.119,8.305-6.985,11.424-11.424c3.119,4.439,6.985,8.305,11.424,11.424C447.001,379.107,443.136,382.972,440.017,387.411z
			"/>
	</g>
</g>
<g>
</g>
<g>
</g>
<g>
</g>
<g>
</g>
<g>
</g>
<g>
</g>
<g>
</g>
<g>
</g>
<g>
</g>
<g>
</g>
<g>
</g>
<g>
</g>
<g>
</g>
<g>
</g>
<g>
</g>
</svg>
