<?xml version="1.0" encoding="iso-8859-1"?>
<!-- Generator: Adobe Illustrator 21.0.0, SVG Export Plug-In . SVG Version: 6.00 Build 0)  -->
<svg xmlns="http://www.w3.org/2000/svg" xmlns:xlink="http://www.w3.org/1999/xlink" version="1.1" id="Capa_1" x="0px" y="0px" viewBox="0 0 512 512" style="enable-background:new 0 0 512 512;" xml:space="preserve" width="512" height="512">
<g>
	<g>
		<path style="fill:#FF7CB9;" d="M497,241c-32.102,0-64.6,6-94.3,17.699H109.3C79.6,247,47.102,241,15,241c-8.401,0-15,6.599-15,15    v241c0,8.399,6.599,15,15,15h482c8.401,0,15-6.601,15-15V256C512,247.599,505.401,241,497,241z"/>
	</g>
	<path style="fill:#FA5E97;" d="M512,256v241c0,8.399-6.599,15-15,15H256V258.699h146.7C432.4,247,464.898,241,497,241   C505.401,241,512,247.599,512,256z"/>
	<g>
		<circle style="fill:#E0F4FF;" cx="196" cy="46" r="15"/>
	</g>
	<g>
		<circle style="fill:#BBDCFF;" cx="466" cy="106" r="15"/>
	</g>
	<g>
		<circle style="fill:#E0F4FF;" cx="46" cy="136" r="15"/>
	</g>
	<path style="fill:#E0F4FF;" d="M136,61h-15V46c0-8.291-6.709-15-15-15s-15,6.709-15,15v15H76c-8.291,0-15,6.709-15,15   s6.709,15,15,15h15v15c0,8.291,6.709,15,15,15s15-6.709,15-15V91h15c8.291,0,15-6.709,15-15S144.291,61,136,61z"/>
	<path style="fill:#BBDCFF;" d="M406,30h-15V15c0-8.291-6.709-15-15-15s-15,6.709-15,15v15h-15c-8.291,0-15,6.709-15,15   s6.709,15,15,15h15v15c0,8.291,6.709,15,15,15s15-6.709,15-15V60h15c8.291,0,15-6.709,15-15S414.291,30,406,30z"/>
	<g>
		<path style="fill:#E0F4FF;" d="M421,256.899c0,69-32.999,194.101-95.999,194.101c-29.7,0-54.001-24.3-54.001-54    c0-21.601-1.501-37.8-15-57.601c-9.902,14.401-15,31.201-15,48.9c0,41.4-24.602,62.701-54.001,62.701    c-83.701,0-133.799-232.5-60.3-304.2c33.303-32.701,90.3-34.2,129.302-6.899c39.001-27.301,96.599-25.801,129.902,6.899    C409.6,169.9,421.3,206.8,421,256.899z"/>
	</g>
	<path style="fill:#BBDCFF;" d="M421,256.899c0,69-32.999,194.101-95.999,194.101c-29.7,0-54.001-24.3-54.001-54   c0-21.601-1.501-37.8-15-57.601V139.9c39.001-27.301,96.599-25.801,129.902,6.899C409.6,169.9,421.3,206.8,421,256.899z"/>
</g>















</svg>
